<svg version="1.1" id="Layer_1" xmlns="http://www.w3.org/2000/svg" xmlns:xlink="http://www.w3.org/1999/xlink" x="0px" y="0px"
	 width="100%" viewBox="0 0 1920 1080" enable-background="new 0 0 1920 1080" xml:space="preserve">
<path fill="#FFFFFF" opacity="1.000000" stroke="none" 
	d="
M1.000000,701.000000 
	C1.000000,467.696167 1.000000,234.392365 1.000000,1.044268 
	C640.889526,1.044268 1280.779053,1.044268 1921.000000,1.044268 
	C1921.000000,199.364136 1921.000000,397.728455 1920.537598,596.464355 
	C1909.244019,596.830017 1898.410034,596.956909 1887.583130,596.735962 
	C1884.398926,596.671021 1882.874390,597.592529 1881.935425,600.674805 
	C1878.115601,613.213562 1874.048340,625.676697 1870.106323,638.178528 
	C1866.354004,650.079041 1860.282959,659.596130 1846.739746,661.977234 
	C1845.367676,662.218445 1843.875244,663.920288 1843.146729,665.314392 
	C1839.457153,672.375549 1835.992798,679.554504 1832.466919,686.700867 
	C1829.048584,693.629272 1823.160034,697.057983 1815.780273,697.736755 
	C1811.342407,698.144897 1806.795776,697.839783 1802.335449,697.439270 
	C1793.139038,696.613525 1787.521851,691.330566 1785.009399,682.613770 
	C1783.597412,677.715088 1782.341675,672.771301 1781.208374,668.564209 
	C1774.977295,672.682617 1769.268311,678.001526 1762.512451,680.636230 
	C1740.875000,689.074524 1718.467285,691.691528 1695.398682,686.930115 
	C1686.475830,685.088440 1677.377930,684.060059 1668.335205,682.843323 
	C1658.432983,681.511047 1650.957153,685.334595 1646.716431,694.378174 
	C1642.848267,702.626831 1639.243286,711.029846 1636.081665,719.571838 
	C1630.831055,733.757751 1625.852539,747.981018 1616.886597,760.458557 
	C1610.854370,768.853394 1603.204468,773.357727 1592.951904,771.003662 
	C1575.415527,766.977173 1557.951660,768.094299 1540.302856,769.915405 
	C1514.751099,772.551941 1493.515869,782.831116 1477.043579,802.808472 
	C1474.026611,806.467468 1470.224121,809.771790 1466.167358,812.215576 
	C1459.096680,816.474976 1451.521484,819.891235 1444.201172,823.743042 
	C1424.958618,833.867920 1406.003540,844.586121 1386.424927,854.010132 
	C1371.497925,861.195129 1361.672485,857.852051 1351.739868,844.591492 
	C1351.587891,844.388611 1351.182129,844.375793 1350.667725,844.193970 
	C1350.180908,845.159363 1349.463257,846.101196 1349.211182,847.154358 
	C1345.613403,862.185974 1335.890625,871.454407 1321.889282,877.118469 
	C1312.986450,880.719910 1307.486816,887.909119 1303.073242,896.273987 
	C1298.274658,905.368225 1294.130127,915.286377 1287.412231,922.799072 
	C1267.507446,945.059021 1248.639404,968.637390 1222.077515,983.872009 
	C1220.466187,984.796143 1218.802490,986.370850 1218.110352,988.036499 
	C1213.195923,999.863464 1205.604492,1005.725586 1193.629517,1005.515564 
	C1182.295532,1005.316772 1174.806641,999.121277 1170.281616,988.271240 
	C1168.378296,988.633667 1166.329468,989.037109 1164.275391,989.411926 
	C1161.135498,989.984985 1157.850586,991.394714 1154.881836,990.905396 
	C1150.049072,990.108826 1145.712402,990.612915 1141.343628,992.532776 
	C1121.957764,1001.051819 1101.256226,1001.459045 1080.631470,1002.246338 
	C1078.670288,1002.321167 1076.677002,1001.810547 1074.712158,1001.489868 
	C1068.072510,1000.406372 1061.465332,999.081116 1054.797729,998.220398 
	C1038.701050,996.142456 1024.149536,990.991089 1012.761719,978.714355 
	C1004.265381,969.554871 995.596191,960.550293 986.803467,951.675415 
	C984.929077,949.783569 982.351868,948.255493 979.815125,947.414124 
	C971.781799,944.749451 963.557861,942.661804 955.512878,940.029480 
	C945.368042,936.710144 935.118652,933.114502 927.866821,924.866333 
	C922.989868,919.319214 918.796509,913.750732 910.413086,913.741638 
	C908.393677,913.739441 906.269470,911.769775 904.382080,910.437622 
	C901.120544,908.135681 897.803467,905.844788 894.880371,903.147583 
	C890.864319,899.441895 886.491699,899.000916 881.522888,900.466797 
	C870.107971,903.834534 858.697937,903.244751 847.722473,899.040283 
	C837.101929,894.971863 826.801941,890.066650 817.176147,885.883240 
	C814.284546,890.163452 811.555786,895.496887 807.614380,899.690430 
	C803.259644,904.323608 799.336609,908.533081 796.320618,914.627686 
	C790.294434,926.805237 779.562012,933.667542 764.923767,933.091797 
	C751.381409,932.559143 745.645325,928.377930 743.343079,915.195312 
	C741.135132,902.553101 742.261292,890.866821 754.412231,883.015625 
	C756.873291,881.425537 759.060974,879.412598 761.843628,877.226074 
	C747.758789,873.104492 736.785706,864.993347 736.928650,850.476990 
	C737.061462,836.986084 745.009827,825.927307 759.304749,819.270264 
	C755.272766,818.768127 756.018066,813.508789 751.008118,815.116760 
	C743.312927,817.586487 735.363892,819.373962 727.420044,820.926758 
	C720.776855,822.225342 714.693481,824.247192 709.255798,828.497986 
	C702.710266,833.614746 695.993103,838.584595 688.925598,842.927124 
	C685.883118,844.796509 681.338501,846.431152 678.239990,845.534180 
	C672.008850,843.730469 666.174438,840.346741 660.423096,837.168457 
	C656.578491,835.043823 656.277649,831.771606 658.540466,827.847351 
	C661.763489,822.257935 660.948975,820.514221 654.972961,818.472351 
	C643.999146,814.722900 632.996155,811.057007 622.056519,807.210754 
	C618.792114,806.062988 616.268311,806.615295 613.218750,808.348755 
	C607.507080,811.595459 601.515625,814.526367 595.333740,816.726807 
	C586.491699,819.874084 578.662354,817.929932 572.593750,810.283020 
	C570.841431,808.074951 568.802673,806.064453 566.709656,804.168091 
	C565.488831,803.061951 563.900452,802.361450 561.198486,800.684814 
	C561.836670,805.281006 562.058289,808.398438 562.729187,811.415955 
	C564.544128,819.578430 561.852112,825.727905 555.697510,831.333862 
	C541.425415,844.333740 523.421265,848.010498 505.588684,851.774109 
	C498.408539,853.289429 490.502258,853.537598 483.289185,852.280701 
	C467.213959,849.479553 453.301239,842.515503 445.602448,826.637878 
	C439.480682,830.388184 433.614288,834.114441 427.623871,837.629395 
	C399.131561,854.347961 368.150757,860.364197 335.843353,855.431580 
	C303.647461,850.516052 277.825836,834.051758 259.969482,806.168701 
	C253.065323,795.387634 246.046692,784.679443 239.200836,773.861755 
	C236.965622,770.329773 233.984451,768.352112 230.086182,766.731018 
	C206.148987,756.777344 183.717972,744.151245 164.600311,726.443542 
	C153.158112,715.845276 142.299255,704.565063 135.770248,689.721741 
	C135.122345,689.807556 134.289246,689.835754 133.501175,690.038818 
	C131.733734,690.494263 129.986282,691.028442 128.234894,691.544800 
	C114.261841,695.664551 100.250404,699.076233 85.527260,695.486572 
	C83.543762,695.002930 81.241364,695.549072 79.134331,695.902649 
	C72.808487,696.964355 66.541969,698.443787 60.188164,699.262573 
	C40.526878,701.796143 20.844698,704.409058 1.000000,701.000000 
z"/>
<path fill="#000000" opacity="1.000000" stroke="none" 
	d="
M1.000000,701.468628 
	C20.844698,704.409058 40.526878,701.796143 60.188164,699.262573 
	C66.541969,698.443787 72.808487,696.964355 79.134331,695.902649 
	C81.241364,695.549072 83.543762,695.002930 85.527260,695.486572 
	C100.250404,699.076233 114.261841,695.664551 128.234894,691.544800 
	C129.986282,691.028442 131.733734,690.494263 133.501175,690.038818 
	C134.289246,689.835754 135.122345,689.807556 135.770248,689.721741 
	C142.299255,704.565063 153.158112,715.845276 164.600311,726.443542 
	C183.717972,744.151245 206.148987,756.777344 230.086182,766.731018 
	C233.984451,768.352112 236.965622,770.329773 239.200836,773.861755 
	C246.046692,784.679443 253.065323,795.387634 259.969482,806.168701 
	C277.825836,834.051758 303.647461,850.516052 335.843353,855.431580 
	C368.150757,860.364197 399.131561,854.347961 427.623871,837.629395 
	C433.614288,834.114441 439.480682,830.388184 445.602448,826.637878 
	C453.301239,842.515503 467.213959,849.479553 483.289185,852.280701 
	C490.502258,853.537598 498.408539,853.289429 505.588684,851.774109 
	C523.421265,848.010498 541.425415,844.333740 555.697510,831.333862 
	C561.852112,825.727905 564.544128,819.578430 562.729187,811.415955 
	C562.058289,808.398438 561.836670,805.281006 561.198486,800.684814 
	C563.900452,802.361450 565.488831,803.061951 566.709656,804.168091 
	C568.802673,806.064453 570.841431,808.074951 572.593750,810.283020 
	C578.662354,817.929932 586.491699,819.874084 595.333740,816.726807 
	C601.515625,814.526367 607.507080,811.595459 613.218750,808.348755 
	C616.268311,806.615295 618.792114,806.062988 622.056519,807.210754 
	C632.996155,811.057007 643.999146,814.722900 654.972961,818.472351 
	C660.948975,820.514221 661.763489,822.257935 658.540466,827.847351 
	C656.277649,831.771606 656.578491,835.043823 660.423096,837.168457 
	C666.174438,840.346741 672.008850,843.730469 678.239990,845.534180 
	C681.338501,846.431152 685.883118,844.796509 688.925598,842.927124 
	C695.993103,838.584595 702.710266,833.614746 709.255798,828.497986 
	C714.693481,824.247192 720.776855,822.225342 727.420044,820.926758 
	C735.363892,819.373962 743.312927,817.586487 751.008118,815.116760 
	C756.018066,813.508789 755.272766,818.768127 759.304749,819.270264 
	C745.009827,825.927307 737.061462,836.986084 736.928650,850.476990 
	C736.785706,864.993347 747.758789,873.104492 761.843628,877.226074 
	C759.060974,879.412598 756.873291,881.425537 754.412231,883.015625 
	C742.261292,890.866821 741.135132,902.553101 743.343079,915.195312 
	C745.645325,928.377930 751.381409,932.559143 764.923767,933.091797 
	C779.562012,933.667542 790.294434,926.805237 796.320618,914.627686 
	C799.336609,908.533081 803.259644,904.323608 807.614380,899.690430 
	C811.555786,895.496887 814.284546,890.163452 817.176147,885.883240 
	C826.801941,890.066650 837.101929,894.971863 847.722473,899.040283 
	C858.697937,903.244751 870.107971,903.834534 881.522888,900.466797 
	C886.491699,899.000916 890.864319,899.441895 894.880371,903.147583 
	C897.803467,905.844788 901.120544,908.135681 904.382080,910.437622 
	C906.269470,911.769775 908.393677,913.739441 910.413086,913.741638 
	C918.796509,913.750732 922.989868,919.319214 927.866821,924.866333 
	C935.118652,933.114502 945.368042,936.710144 955.512878,940.029480 
	C963.557861,942.661804 971.781799,944.749451 979.815125,947.414124 
	C982.351868,948.255493 984.929077,949.783569 986.803467,951.675415 
	C995.596191,960.550293 1004.265381,969.554871 1012.761719,978.714355 
	C1024.149536,990.991089 1038.701050,996.142456 1054.797729,998.220398 
	C1061.465332,999.081116 1068.072510,1000.406372 1074.712158,1001.489868 
	C1076.677002,1001.810547 1078.670288,1002.321167 1080.631470,1002.246338 
	C1101.256226,1001.459045 1121.957764,1001.051819 1141.343628,992.532776 
	C1145.712402,990.612915 1150.049072,990.108826 1154.881836,990.905396 
	C1157.850586,991.394714 1161.135498,989.984985 1164.275391,989.411926 
	C1166.329468,989.037109 1168.378296,988.633667 1170.281616,988.271240 
	C1174.806641,999.121277 1182.295532,1005.316772 1193.629517,1005.515564 
	C1205.604492,1005.725586 1213.195923,999.863464 1218.110352,988.036499 
	C1218.802490,986.370850 1220.466187,984.796143 1222.077515,983.872009 
	C1248.639404,968.637390 1267.507446,945.059021 1287.412231,922.799072 
	C1294.130127,915.286377 1298.274658,905.368225 1303.073242,896.273987 
	C1307.486816,887.909119 1312.986450,880.719910 1321.889282,877.118469 
	C1335.890625,871.454407 1345.613403,862.185974 1349.211182,847.154358 
	C1349.463257,846.101196 1350.180908,845.159363 1350.667725,844.193970 
	C1351.182129,844.375793 1351.587891,844.388611 1351.739868,844.591492 
	C1361.672485,857.852051 1371.497925,861.195129 1386.424927,854.010132 
	C1406.003540,844.586121 1424.958618,833.867920 1444.201172,823.743042 
	C1451.521484,819.891235 1459.096680,816.474976 1466.167358,812.215576 
	C1470.224121,809.771790 1474.026611,806.467468 1477.043579,802.808472 
	C1493.515869,782.831116 1514.751099,772.551941 1540.302856,769.915405 
	C1557.951660,768.094299 1575.415527,766.977173 1592.951904,771.003662 
	C1603.204468,773.357727 1610.854370,768.853394 1616.886597,760.458557 
	C1625.852539,747.981018 1630.831055,733.757751 1636.081665,719.571838 
	C1639.243286,711.029846 1642.848267,702.626831 1646.716431,694.378174 
	C1650.957153,685.334595 1658.432983,681.511047 1668.335205,682.843323 
	C1677.377930,684.060059 1686.475830,685.088440 1695.398682,686.930115 
	C1718.467285,691.691528 1740.875000,689.074524 1762.512451,680.636230 
	C1769.268311,678.001526 1774.977295,672.682617 1781.208374,668.564209 
	C1782.341675,672.771301 1783.597412,677.715088 1785.009399,682.613770 
	C1787.521851,691.330566 1793.139038,696.613525 1802.335449,697.439270 
	C1806.795776,697.839783 1811.342407,698.144897 1815.780273,697.736755 
	C1823.160034,697.057983 1829.048584,693.629272 1832.466919,686.700867 
	C1835.992798,679.554504 1839.457153,672.375549 1843.146729,665.314392 
	C1843.875244,663.920288 1845.367676,662.218445 1846.739746,661.977234 
	C1860.282959,659.596130 1866.354004,650.079041 1870.106323,638.178528 
	C1874.048340,625.676697 1878.115601,613.213562 1881.935425,600.674805 
	C1882.874390,597.592529 1884.398926,596.671021 1887.583130,596.735962 
	C1898.410034,596.956909 1909.244019,596.830017 1920.537598,596.917969 
	C1921.000000,758.308044 1921.000000,919.616028 1921.000000,1080.931274 
	C1281.000000,1080.938477 641.000000,1080.938477 1.000000,1080.938477 
	C1.000000,954.563843 1.000000,828.250549 1.000000,701.468628 
z"/>
</svg>